HIERARCHY
ROOT Hips
{
 OFFSET 0.000000 0.000000 0.000000
 CHANNELS 6 Xposition Yposition Zposition Yrotation Xrotation Zrotation
 JOINT Chest
 {
  OFFSET 0.000000 9.857222 0.000240
  CHANNELS 3 Yrotation Xrotation Zrotation
  JOINT Chest2
  {
   OFFSET 0.000000 10.876940 -0.000436
   CHANNELS 3 Yrotation Xrotation Zrotation
   JOINT Chest3
   {
    OFFSET 0.000000 9.827798 0.000000
    CHANNELS 3 Yrotation Xrotation Zrotation
    JOINT Chest4
    {
     OFFSET 0.000000 9.827798 0.000000
     CHANNELS 3 Yrotation Xrotation Zrotation
     JOINT Neck
     {
      OFFSET 0.000000 13.831992 0.000000
      CHANNELS 3 Yrotation Xrotation Zrotation
      JOINT Head
      {
       OFFSET 0.000000 9.147643 -0.001036
       CHANNELS 3 Yrotation Xrotation Zrotation
       End Site
       {
        OFFSET 0.000000 17.515799 -0.000541
       }
      }
     }
     JOINT RightCollar
     {
      OFFSET -3.001579 7.717577 0.000000
      CHANNELS 3 Yrotation Xrotation Zrotation
      JOINT RightShoulder
      {
       OFFSET -14.002642 0.000000 0.000000
       CHANNELS 3 Yrotation Xrotation Zrotation
       JOINT RightElbow
       {
        OFFSET -30.053852 0.000000 0.000000
        CHANNELS 3 Yrotation Xrotation Zrotation
        JOINT RightWrist
        {
         OFFSET -24.564923 0.000000 -0.000000
         CHANNELS 3 Yrotation Xrotation Zrotation
         End Site
         {
          OFFSET -18.334355 0.000000 0.000000
         }
        }
       }
      }
     }
     JOINT LeftCollar
     {
      OFFSET 3.001579 7.717577 0.000000
      CHANNELS 3 Yrotation Xrotation Zrotation
      JOINT LeftShoulder
      {
       OFFSET 14.002642 0.000000 0.000000
       CHANNELS 3 Yrotation Xrotation Zrotation
       JOINT LeftElbow
       {
        OFFSET 30.053852 0.000000 0.000000
        CHANNELS 3 Yrotation Xrotation Zrotation
        JOINT LeftWrist
        {
         OFFSET 24.564923 0.000000 -0.000000
         CHANNELS 3 Yrotation Xrotation Zrotation
         End Site
         {
          OFFSET 18.334355 0.000000 0.000000
         }
        }
       }
      }
     }
    }
   }
  }
 }
 JOINT RightHip
 {
  OFFSET -8.003235 -0.001175 -0.000120
  CHANNELS 3 Yrotation Xrotation Zrotation
  JOINT RightKnee
  {
   OFFSET 0.000000 -41.759727 0.000113
   CHANNELS 3 Yrotation Xrotation Zrotation
   JOINT RightAnkle
   {
    OFFSET 0.000000 -40.728748 0.000159
    CHANNELS 3 Yrotation Xrotation Zrotation
    JOINT RightToe
    {
     OFFSET 0.000000 -6.515296 14.732841
     CHANNELS 3 Yrotation Xrotation Zrotation
     End Site
     {
      OFFSET 0.000000 -1.502839 6.412115
     }
    }
   }
  }
 }
 JOINT LeftHip
 {
  OFFSET 8.003235 -0.001175 -0.000120
  CHANNELS 3 Yrotation Xrotation Zrotation
  JOINT LeftKnee
  {
   OFFSET 0.000000 -41.759727 0.000113
   CHANNELS 3 Yrotation Xrotation Zrotation
   JOINT LeftAnkle
   {
    OFFSET 0.000000 -40.728748 0.000159
    CHANNELS 3 Yrotation Xrotation Zrotation
    JOINT LeftToe
    {
     OFFSET 0.000000 -6.515296 14.732841
     CHANNELS 3 Yrotation Xrotation Zrotation
     End Site
     {
      OFFSET 0.000000 -1.502839 6.412115
     }
    }
   }
  }
 }
}
MOTION
Frames: 11
Frame Time: 0.016667
0.000000 88.822259 0.000000 0.000000 -5.826342 0.000000 0.000000 11.116423 0.000000 0.000000 -5.290081 0.000000 0.000000 0.000000 0.000000 0.000000 0.000000 0.000000 0.000000 12.665069 0.000000 0.000000 0.575450 0.000000 0.000000 0.000000 0.000000 0.000000 0.000000 0.000000 2.337306 0.000000 0.000000 -2.337306 0.000000 0.000000 0.000000 0.000000 0.000000 0.000000 0.000000 0.000000 -2.337306 0.000000 0.000000 2.337306 0.000000 0.000000 0.000000 8.578828 0.000000 0.000000 1.905768 0.000000 0.000000 -4.658254 0.000000 0.000000 0.000000 0.000000 0.000000 8.578828 0.000000 0.000000 1.905768 0.000000 0.000000 -4.658254 0.000000 0.000000 0.000000 0.000000
20.022316 90.558986 15.673608 -33.266269 -17.754960 -0.858958 0.900546 7.980325 0.543525 0.300049 3.612452 0.248785 0.300049 3.612452 0.248785 0.223490 2.709462 0.184751 -8.644414 22.193508 1.686234 -16.074696 5.666189 5.387314 8.505557 6.371367 9.579603 45.925792 -10.949659 72.836620 14.199836 12.475768 3.906709 3.185679 0.532323 -5.283417 -20.660978 9.488685 -13.163160 -29.058522 5.023887 -57.305383 -29.223388 -29.345606 1.641139 0.759662 6.524573 6.204705 -2.760202 27.594645 -6.065136 -0.617612 -5.139609 5.646443 -0.470376 -4.569308 0.260008 -0.521684 0.061810 -0.232272 -0.391874 17.847053 2.333980 0.780384 2.606201 -2.270692 1.538344 -3.141211 0.277980 0.157065 0.076960 0.073779
20.019394 90.559628 15.686507 -33.253668 -17.742176 -0.847909 0.895581 7.941866 0.528948 0.300260 3.594097 0.244033 0.300260 3.594097 0.244033 0.223684 2.695694 0.181197 -8.665738 22.228512 1.671082 -16.106332 5.731097 5.361302 8.482186 6.314719 9.611153 45.884160 -11.190189 72.738914 14.063367 11.675157 3.803152 3.282164 0.285149 -5.439928 -20.719905 9.529167 -13.169094 -29.373008 5.014470 -57.257636 -29.406384 -31.171942 2.387136 0.688282 6.450177 6.155394 -2.894861 27.607085 -6.143300 -0.619658 -5.181460 5.670626 -0.408224 -4.528731 0.281330 -0.533410 0.047521 -0.252530 -0.418206 17.847029 2.311675 0.785713 2.593377 -2.266763 1.522999 -3.132189 0.274441 0.169369 0.067438 0.077347
20.004245 90.561533 15.703194 -33.219960 -17.749788 -0.844861 0.847231 7.932677 0.515034 0.301158 3.571114 0.241900 0.301158 3.571114 0.241900 0.224380 2.678456 0.179604 -8.681992 22.256465 1.646450 -16.126837 5.781007 5.317820 8.471464 6.260876 9.630279 45.987168 -11.423982 72.779933 14.047888 10.332298 3.387236 3.382825 0.005806 -5.562080 -20.756560 9.557792 -13.166954 -29.742782 5.087976 -57.258548 -29.873079 -33.698492 3.380084 0.676048 6.573958 6.058717 -3.078102 27.640203 -6.217686 -0.597446 -5.218962 5.678339 -0.412859 -4.485762 0.280904 -0.473813 0.025610 -0.241477 -0.459499 17.875806 2.295801 0.791589 2.576495 -2.256006 1.503320 -3.123968 0.267973 0.164896 0.055692 0.073719
19.985840 90.562356 15.718061 -33.230597 -17.727707 -0.836036 0.829803 7.902159 0.504405 0.304025 3.549677 0.241193 0.304025 3.549677 0.241193 0.226543 2.662379 0.179069 -8.693563 22.272030 1.621502 -16.139788 5.807451 5.274094 8.469790 6.163049 9.644150 46.153964 -11.631570 73.013336 14.193660 8.618945 2.634640 3.472391 -0.286684 -5.662569 -20.772406 9.534776 -13.142384 -30.098396 5.201353 -57.341218 -30.427416 -36.109849 4.433049 0.629226 6.547259 5.994901 -3.216771 27.643051 -6.269676 -0.569594 -5.250624 5.669446 -0.392109 -4.468884 0.307789 -0.462197 0.024161 -0.252490 -0.464020 17.877221 2.278143 0.806295 2.560330 -2.231001 1.520333 -3.122524 0.254435 0.159622 0.047755 0.069306
19.963683 90.563006 15.734029 -33.250747 -17.687134 -0.827112 0.815298 7.861709 0.497845 0.307844 3.525166 0.242201 0.307844 3.525166 0.242201 0.229412 2.643998 0.179816 -8.702901 22.280037 1.596471 -16.149283 5.819672 5.230578 8.473031 6.021310 9.649512 46.215282 -11.848685 73.417461 14.528895 6.783948 1.685231 3.525298 -0.559152 -5.803247 -20.786649 9.497734 -13.119240 -30.416624 5.313256 -57.491843 -30.999712 -38.105250 5.437245 0.561737 6.757459 5.994384 -3.352599 27.624155 -6.329930 -0.557210 -5.275633 5.675294 -0.344029 -4.454500 0.332490 -0.447038 0.023639 -0.261480 -0.450206 17.863485 2.268738 0.822457 2.544034 -2.207983 1.522819 -3.123383 0.242676 0.151089 0.039553 0.063563
19.937829 90.562276 15.747082 -33.292085 -17.612411 -0.822447 0.814303 7.804797 0.501823 0.312873 3.496679 0.244054 0.312873 3.496679 0.244054 0.233184 2.622635 0.181192 -8.709354 22.280755 1.573772 -16.154766 5.818441 5.191406 8.496877 5.871077 9.657683 46.069687 -12.117211 74.001694 15.038440 5.009043 0.515013 3.586238 -0.834270 -5.959857 -20.785842 9.463781 -13.094244 -30.681003 5.421768 -57.638497 -31.412862 -38.969007 6.166494 0.506232 6.763965 6.025501 -3.470593 27.566989 -6.367333 -0.550004 -5.295003 5.676068 -0.306147 -4.445156 0.352693 -0.431744 0.027555 -0.266939 -0.404406 17.814655 2.276482 0.828305 2.532044 -2.184728 1.511988 -3.133404 0.226647 0.145774 0.037153 0.059797
19.901376 90.561425 15.759400 -33.314956 -17.533031 -0.834214 0.799654 7.757696 0.511312 0.319634 3.463843 0.247900 0.319634 3.463843 0.247900 0.238246 2.598013 0.184055 -8.711601 22.277805 1.558937 -16.155059 5.811098 5.165719 8.528235 5.677261 9.667536 45.686585 -12.412122 74.729388 15.768551 3.239566 -0.761811 3.612496 -1.065655 -6.153055 -20.770749 9.437393 -13.071716 -30.795360 5.503220 -57.734148 -31.718836 -38.979433 6.599930 0.509875 6.760831 6.012919 -3.635253 27.507529 -6.403309 -0.484228 -5.322507 5.673561 -0.326705 -4.422969 0.347913 -0.370576 0.018873 -0.247079 -0.377759 17.761142 2.310224 0.820379 2.526172 -2.178531 1.521187 -3.150669 0.212771 0.136193 0.036571 0.054038
19.862436 90.559252 15.770072 -33.356859 -17.431114 -0.835978 0.805124 7.691512 0.515637 0.329263 3.429239 0.252501 0.329263 3.429239 0.252501 0.245455 2.572066 0.187470 -8.712047 22.272895 1.549396 -16.153677 5.800697 5.149310 8.585765 5.492032 9.692579 45.034117 -12.700781 75.405193 16.738838 1.498143 -1.990552 3.630817 -1.352355 -6.390872 -20.756713 9.393269 -13.059185 -30.732657 5.539614 -57.831440 -31.722244 -38.337298 6.544423 0.420174 6.758426 6.084428 -3.779214 27.420242 -6.441079 -0.390657 -5.337499 5.669190 -0.315321 -4.431037 0.359718 -0.363534 0.028561 -0.247784 -0.343754 17.685806 2.344302 0.822606 2.521953 -2.181903 1.558963 -3.170857 0.195326 0.134974 0.036975 0.052579
19.818461 90.557413 15.777351 -33.396977 -17.338118 -0.847039 0.817552 7.621403 0.528651 0.338700 3.397627 0.258375 0.338700 3.397627 0.258375 0.252512 2.548365 0.191839 -8.709629 22.271584 1.541301 -16.147238 5.796819 5.134313 8.668571 5.312032 9.734674 44.159124 -12.986027 76.221603 17.942598 -0.173360 -3.183036 3.579653 -1.669396 -6.772122 -20.752457 9.335325 -13.071645 -30.590617 5.542766 -57.966913 -31.487758 -36.906204 6.208208 0.306561 6.970558 6.189140 -3.857901 27.341517 -6.433313 -0.338697 -5.343797 5.657278 -0.317842 -4.438944 0.365371 -0.347705 0.034417 -0.242664 -0.329177 17.617531 2.386402 0.851211 2.522816 -2.192808 1.560242 -3.191437 0.185388 0.130031 0.036693 0.048216
19.775592 90.556905 15.786990 -33.432485 -17.267545 -0.853731 0.829464 7.556458 0.535406 0.346930 3.369937 0.263407 0.346930 3.369937 0.263407 0.258668 2.527604 0.195583 -8.702973 22.276298 1.536127 -16.133477 5.803998 5.122719 8.732023 5.095258 9.775756 43.127571 -13.367889 77.208268 19.175051 -1.619251 -4.207706 3.470466 -1.961491 -7.222517 -20.743302 9.293388 -13.103647 -30.393990 5.561316 -58.073909 -31.009423 -34.219195 5.581855 0.258203 6.807825 6.307367 -3.930002 27.286216 -6.434551 -0.311514 -5.347179 5.655054 -0.288484 -4.445271 0.371784 -0.338408 0.036127 -0.240384 -0.332821 17.569547 2.409613 0.882153 2.528761 -2.189331 1.572257 -3.208219 0.171013 0.120327 0.030786 0.042652
